<svg xmlns="http://www.w3.org/2000/svg" viewBox="0 0 1024 1024">
  <defs>
    <linearGradient id="bg" x1="0" y1="0" x2="1" y2="1">
      <stop offset="0%" stop-color="#F7B8D4"/>
      <stop offset="100%" stop-color="#C9B6F2"/>
    </linearGradient>
    <radialGradient id="glow" cx="50%" cy="38%" r="60%">
      <stop offset="0%" stop-color="#FFFFFF" stop-opacity="0.9"/>
      <stop offset="100%" stop-color="#FFFFFF" stop-opacity="0"/>
    </radialGradient>
  </defs>

  <rect width="1024" height="1024" fill="url(#bg)"/>
  <rect width="1024" height="1024" fill="url(#glow)"/>

  <!-- big sparkle -->
  <path d="M512 240
           L556 452
           L768 496
           L556 540
           L512 752
           L468 540
           L256 496
           L468 452
           Z"
        fill="#FFFFFF"/>

  <!-- small sparkle top-left -->
  <path d="M330 210 L346 268 L404 284 L346 300 L330 358 L314 300 L256 284 L314 268 Z"
        fill="#FFFFFF" opacity="0.9"/>

  <!-- small heart accent bottom-right -->
  <path d="M712 706
           c0,-26 21,-46 47,-46
           c15,0 28,7 36,18
           c8,-11 21,-18 36,-18
           c26,0 47,20 47,46
           c0,40 -50,72 -83,96
           c-33,-24 -83,-56 -83,-96 Z"
        fill="#FFFFFF" opacity="0.95"/>
</svg>
